<?xml version="1.0" encoding="utf-8"?>
<!-- Generator: Adobe Illustrator 25.3.1, SVG Export Plug-In . SVG Version: 6.00 Build 0)  -->
<svg version="1.1" id="Layer_1" xmlns="http://www.w3.org/2000/svg" xmlns:xlink="http://www.w3.org/1999/xlink" x="0px" y="0px"
	 viewBox="0 0 513.84 177.63" style="enable-background:new 0 0 513.84 177.63;" xml:space="preserve">
<style type="text/css">
	.st0{fill:#FFFFFF;}
	.st1{fill:#FFFFFF;stroke:#FFFFFF;stroke-width:3;stroke-linecap:round;stroke-linejoin:round;stroke-miterlimit:10;}
</style>
<g>
	<g>
		<path class="st0" d="M512.43,0h-18.48H19.89h-0.14H0v177.63h513.84V0H512.43z M493.95,4v153.74H19.89V4H493.95z M509.84,173.63H4
			V4h11.89v157.74h482.06V4h11.89V173.63z"/>
	</g>
	<g>
		<path class="st1" d="M42.67,71.64l13.12-35.87h7.38l13.12,35.87h-6.97l-2.87-8.3H52.46l-2.92,8.3H42.67z M54.25,58.21h10.4
			L59.43,43.3L54.25,58.21z"/>
		<path class="st1" d="M111.02,72.25c-3.59,0-6.72-0.79-9.4-2.36c-2.68-1.57-4.78-3.75-6.3-6.53c-1.52-2.78-2.28-6-2.28-9.66
			s0.76-6.87,2.28-9.66c1.52-2.78,3.62-4.96,6.3-6.53c2.68-1.57,5.82-2.36,9.4-2.36c3.55,0,6.68,0.79,9.38,2.36
			c2.7,1.57,4.8,3.75,6.3,6.53c1.5,2.78,2.25,6,2.25,9.66c0,3.42-0.67,6.46-2,9.15c-1.33,2.68-3.18,4.81-5.53,6.38l8.3,8.92h-8.15
			l-5.64-6.46C114.37,72.07,112.73,72.25,111.02,72.25z M111.02,66.36c3.42,0,6.14-1.13,8.17-3.38c2.03-2.25,3.05-5.35,3.05-9.27
			s-1.02-7.02-3.05-9.28c-2.03-2.25-4.76-3.38-8.17-3.38c-3.42,0-6.15,1.13-8.2,3.38s-3.07,5.35-3.07,9.28s1.03,7.02,3.07,9.27
			S107.61,66.36,111.02,66.36z"/>
		<path class="st1" d="M163.8,72.25c-2.63,0-5-0.52-7.12-1.56c-2.12-1.04-3.8-2.62-5.05-4.74c-1.25-2.12-1.87-4.8-1.87-8.05V35.77
			h6.56v22.19c0,2.8,0.67,4.89,2.02,6.25c1.35,1.37,3.22,2.05,5.61,2.05c2.36,0,4.22-0.68,5.59-2.05c1.37-1.37,2.05-3.45,2.05-6.25
			V35.77h6.56v22.14c0,3.25-0.65,5.93-1.95,8.05c-1.3,2.12-3.03,3.7-5.2,4.74C168.83,71.73,166.43,72.25,163.8,72.25z"/>
		<path class="st1" d="M196.39,71.64l13.12-35.87h7.38L230,71.64h-6.97l-2.87-8.3h-13.99l-2.92,8.3H196.39z M207.97,58.21h10.4
			l-5.23-14.91L207.97,58.21z"/>
		<path class="st1" d="M262.23,72.25c-2.63,0-4.95-0.45-6.97-1.36c-2.02-0.9-3.6-2.2-4.76-3.89c-1.16-1.69-1.76-3.75-1.79-6.17h6.92
			c0.07,1.67,0.67,3.08,1.82,4.23c1.14,1.15,2.72,1.72,4.74,1.72c1.74,0,3.13-0.42,4.15-1.26c1.02-0.84,1.54-1.96,1.54-3.36
			c0-1.47-0.45-2.61-1.36-3.43c-0.91-0.82-2.11-1.49-3.61-2c-1.5-0.51-3.11-1.06-4.82-1.64c-2.77-0.96-4.88-2.19-6.33-3.69
			c-1.45-1.5-2.18-3.5-2.18-5.99c-0.03-2.12,0.47-3.94,1.51-5.46c1.04-1.52,2.47-2.7,4.28-3.54c1.81-0.84,3.89-1.26,6.25-1.26
			c2.39,0,4.5,0.43,6.33,1.28c1.83,0.85,3.26,2.05,4.3,3.59c1.04,1.54,1.6,3.37,1.67,5.48h-7.02c-0.03-1.26-0.52-2.38-1.46-3.36
			c-0.94-0.97-2.25-1.46-3.92-1.46c-1.43-0.03-2.64,0.32-3.61,1.05c-0.97,0.74-1.46,1.8-1.46,3.2c0,1.2,0.38,2.14,1.13,2.84
			s1.78,1.29,3.07,1.77c1.3,0.48,2.78,0.99,4.46,1.54c1.78,0.61,3.4,1.33,4.87,2.15s2.65,1.9,3.54,3.25
			c0.89,1.35,1.33,3.08,1.33,5.2c0,1.88-0.48,3.62-1.44,5.23c-0.96,1.61-2.37,2.89-4.25,3.87
			C267.27,71.77,264.96,72.25,262.23,72.25z"/>
		<path class="st1" d="M312.19,72.25c-3.62,0-6.73-0.78-9.33-2.33c-2.6-1.55-4.6-3.72-5.99-6.51c-1.4-2.78-2.1-6-2.1-9.66
			c0-3.65,0.7-6.88,2.1-9.68c1.4-2.8,3.4-4.99,5.99-6.56c2.6-1.57,5.7-2.36,9.33-2.36c4.3,0,7.83,1.07,10.58,3.2
			c2.75,2.13,4.47,5.13,5.15,8.99h-7.23c-0.44-1.95-1.39-3.47-2.84-4.59c-1.45-1.11-3.37-1.67-5.76-1.67
			c-3.31,0-5.91,1.13-7.79,3.38c-1.88,2.25-2.82,5.35-2.82,9.27c0,3.93,0.94,7.01,2.82,9.25c1.88,2.24,4.48,3.36,7.79,3.36
			c2.39,0,4.31-0.52,5.76-1.56c1.45-1.04,2.4-2.49,2.84-4.33h7.23c-0.68,3.69-2.4,6.58-5.15,8.66
			C320.02,71.21,316.49,72.25,312.19,72.25z"/>
		<path class="st1" d="M346.32,71.64l13.12-35.87h7.38l13.12,35.87h-6.97l-2.87-8.3H356.1l-2.92,8.3H346.32z M357.9,58.21h10.4
			l-5.23-14.91L357.9,58.21z"/>
		<path class="st1" d="M399.91,71.64V35.77h13.27c2.87,0,5.24,0.48,7.12,1.43c1.88,0.96,3.28,2.27,4.2,3.95
			c0.92,1.67,1.38,3.55,1.38,5.64c0,1.98-0.44,3.8-1.33,5.46c-0.89,1.66-2.27,2.99-4.15,4c-1.88,1.01-4.29,1.51-7.23,1.51h-6.71
			v13.89H399.91z M406.47,52.42h6.3c2.29,0,3.94-0.5,4.94-1.51c1.01-1.01,1.51-2.38,1.51-4.13c0-1.78-0.5-3.17-1.51-4.18
			c-1.01-1.01-2.66-1.51-4.94-1.51h-6.3V52.42z"/>
		<path class="st1" d="M444.39,71.64V35.77h23.42v5.28h-16.86v9.84h15.32v5.12h-15.32v10.35h16.86v5.28H444.39z"/>
		<path class="st1" d="M109.36,124.59V94H98.91v-5.28h27.52V94h-10.5v30.59H109.36z"/>
		<path class="st1" d="M146.66,124.59V88.72h6.56v14.91h16.09V88.72h6.56v35.87h-6.56v-15.63h-16.09v15.63H146.66z"/>
		<path class="st1" d="M198.21,124.59V88.72h23.42V94h-16.86v9.84h15.32v5.12h-15.32v10.35h16.86v5.28H198.21z"/>
		<path class="st1" d="M243.2,124.59V88.72h13.17c2.87,0,5.23,0.49,7.1,1.46c1.86,0.97,3.25,2.29,4.18,3.94
			c0.92,1.66,1.38,3.49,1.38,5.51c0,2.19-0.57,4.19-1.72,5.99c-1.15,1.81-2.93,3.13-5.35,3.95l7.43,15.01h-7.53l-6.66-14.14h-5.43
			v14.14H243.2z M249.76,105.63h6.2c2.19,0,3.79-0.53,4.82-1.59c1.03-1.06,1.54-2.46,1.54-4.2c0-1.71-0.5-3.07-1.51-4.1
			c-1.01-1.03-2.64-1.54-4.89-1.54h-6.15V105.63z"/>
		<path class="st1" d="M288.19,124.59l13.12-35.87h7.38l13.12,35.87h-6.97l-2.87-8.3h-13.99l-2.92,8.3H288.19z M299.77,111.16h10.4
			l-5.23-14.91L299.77,111.16z"/>
		<path class="st1" d="M341.78,124.59V88.72h13.27c2.87,0,5.24,0.48,7.12,1.43c1.88,0.96,3.28,2.27,4.2,3.95
			c0.92,1.67,1.38,3.55,1.38,5.64c0,1.98-0.44,3.8-1.33,5.46c-0.89,1.66-2.27,2.99-4.15,4c-1.88,1.01-4.29,1.51-7.23,1.51h-6.71
			v13.89H341.78z M348.34,105.37h6.3c2.29,0,3.94-0.5,4.94-1.51c1.01-1.01,1.51-2.38,1.51-4.13c0-1.78-0.5-3.17-1.51-4.18
			c-1.01-1.01-2.66-1.51-4.94-1.51h-6.3V105.37z"/>
		<path class="st1" d="M397.22,124.59v-12.76l-12.04-23.11h7.43l7.94,16.55l7.89-16.55h7.33l-11.99,23.11v12.76H397.22z"/>
	</g>
</g>
</svg>
