<?xml version="1.0" encoding="utf-8"?>
<!-- Generator: Adobe Illustrator 25.3.1, SVG Export Plug-In . SVG Version: 6.00 Build 0)  -->
<svg version="1.1" id="Logo" xmlns="http://www.w3.org/2000/svg" xmlns:xlink="http://www.w3.org/1999/xlink" x="0px" y="0px"
	 viewBox="0 0 503.84 503.84" style="enable-background:new 0 0 503.84 503.84;" xml:space="preserve">
<style type="text/css">
	.st0{fill:#FFFFFF;}
</style>
<g>
	<path class="st0" d="M251.92,45.39c67.27,0,75.23,0.26,101.8,1.47c24.56,1.12,37.9,5.22,46.78,8.67
		c11.76,4.57,20.15,10.03,28.97,18.84c8.82,8.82,14.28,17.21,18.84,28.97c3.45,8.88,7.55,22.22,8.67,46.78
		c1.21,26.56,1.47,34.53,1.47,101.8s-0.26,75.23-1.47,101.8c-1.12,24.56-5.22,37.9-8.67,46.78c-4.57,11.76-10.03,20.15-18.84,28.97
		c-8.82,8.82-17.21,14.28-28.97,18.84c-8.88,3.45-22.22,7.55-46.78,8.67c-26.56,1.21-34.53,1.47-101.8,1.47s-75.24-0.26-101.8-1.47
		c-24.56-1.12-37.9-5.22-46.78-8.67c-11.76-4.57-20.15-10.03-28.97-18.84c-8.82-8.82-14.28-17.21-18.84-28.97
		c-3.45-8.88-7.55-22.22-8.67-46.78c-1.21-26.56-1.47-34.53-1.47-101.8s0.26-75.23,1.47-101.8c1.12-24.56,5.22-37.9,8.67-46.78
		c4.57-11.76,10.03-20.15,18.84-28.97c8.82-8.82,17.21-14.28,28.97-18.84c8.88-3.45,22.22-7.55,46.78-8.67
		C176.69,45.65,184.65,45.39,251.92,45.39 M251.92,0c-68.42,0-77,0.29-103.87,1.52C121.24,2.74,102.93,7,86.9,13.23
		c-16.57,6.44-30.62,15.05-44.62,29.06C28.28,56.29,19.66,70.34,13.23,86.9C7,102.93,2.74,121.24,1.52,148.05
		C0.29,174.92,0,183.5,0,251.92c0,68.42,0.29,77,1.52,103.87C2.74,382.6,7,400.91,13.23,416.94c6.44,16.57,15.05,30.62,29.06,44.62
		c14.01,14.01,28.05,22.62,44.62,29.06c16.02,6.23,34.34,10.49,61.15,11.71c26.87,1.23,35.45,1.52,103.87,1.52s77-0.29,103.87-1.52
		c26.81-1.22,45.13-5.48,61.15-11.71c16.57-6.44,30.62-15.05,44.62-29.06c14.01-14.01,22.62-28.05,29.06-44.62
		c6.23-16.02,10.49-34.34,11.71-61.15c1.23-26.87,1.52-35.45,1.52-103.87s-0.29-77-1.52-103.87c-1.22-26.81-5.48-45.13-11.71-61.15
		c-6.44-16.57-15.05-30.62-29.06-44.62c-14.01-14.01-28.05-22.62-44.62-29.06C400.91,7,382.6,2.74,355.79,1.52
		C328.92,0.29,320.34,0,251.92,0L251.92,0z"/>
	<path class="st0" d="M251.92,122.56c-71.45,0-129.36,57.92-129.36,129.36s57.92,129.36,129.36,129.36s129.36-57.92,129.36-129.36
		S323.37,122.56,251.92,122.56z M251.92,335.89c-46.38,0-83.97-37.6-83.97-83.97c0-46.38,37.6-83.97,83.97-83.97
		s83.97,37.6,83.97,83.97C335.89,298.3,298.3,335.89,251.92,335.89z"/>
	<circle class="st0" cx="386.4" cy="117.44" r="30.23"/>
</g>
</svg>
