<?xml version="1.0" encoding="utf-8"?>
<!-- Generator: Adobe Illustrator 25.3.1, SVG Export Plug-In . SVG Version: 6.00 Build 0)  -->
<svg version="1.1" id="Layer_1" xmlns="http://www.w3.org/2000/svg" xmlns:xlink="http://www.w3.org/1999/xlink" x="0px" y="0px"
	 viewBox="0 0 29.67 29.67" style="enable-background:new 0 0 29.67 29.67;" xml:space="preserve">
<style type="text/css">
	.st0{fill:#4C5D84;}
</style>
<g>
	<path class="st0" d="M27.82,7.01H1.85C0.83,7.01,0,6.18,0,5.16v0c0-1.02,0.83-1.85,1.85-1.85h25.97c1.02,0,1.85,0.83,1.85,1.85v0
		C29.67,6.18,28.84,7.01,27.82,7.01z"/>
	<path class="st0" d="M27.82,16.49H1.85C0.83,16.49,0,15.66,0,14.64v0c0-1.02,0.83-1.85,1.85-1.85h25.97c1.02,0,1.85,0.83,1.85,1.85
		v0C29.67,15.66,28.84,16.49,27.82,16.49z"/>
	<path class="st0" d="M27.82,25.97H1.85C0.83,25.97,0,25.14,0,24.12v0c0-1.02,0.83-1.85,1.85-1.85h25.97c1.02,0,1.85,0.83,1.85,1.85
		v0C29.67,25.14,28.84,25.97,27.82,25.97z"/>
</g>
</svg>
