<?xml version="1.0" encoding="utf-8"?>
<!-- Generator: Adobe Illustrator 25.3.1, SVG Export Plug-In . SVG Version: 6.00 Build 0)  -->
<svg version="1.1" id="Layer_1" xmlns="http://www.w3.org/2000/svg" xmlns:xlink="http://www.w3.org/1999/xlink" x="0px" y="0px"
	 viewBox="0 0 29.67 29.67" style="enable-background:new 0 0 29.67 29.67;" xml:space="preserve">
<style type="text/css">
	.st0{fill:#FFFFFF;}
</style>
<g>
	<g>
		<path class="st0" d="M29.1,3.34L3.34,29.1c-0.76,0.76-2.01,0.76-2.77,0l0,0c-0.76-0.76-0.76-2.01,0-2.77L26.33,0.57
			c0.76-0.76,2.01-0.76,2.77,0l0,0C29.86,1.33,29.86,2.58,29.1,3.34z"/>
	</g>
	<g>
		<path class="st0" d="M3.34,0.57L29.1,26.33c0.76,0.76,0.76,2.01,0,2.77l0,0c-0.76,0.76-2.01,0.76-2.77,0L0.57,3.34
			c-0.76-0.76-0.76-2.01,0-2.77l0,0C1.33-0.19,2.58-0.19,3.34,0.57z"/>
	</g>
</g>
</svg>
